<svg width="67" height="53" viewBox="0 0 67 53" fill="none" xmlns="http://www.w3.org/2000/svg">
<path d="M57.0964 24.5493L57.2951 24.8769C58.6593 27.1254 59.2698 29.2603 58.9911 31.2224C58.7105 33.1978 57.5421 34.906 55.5407 36.3166C53.1895 38.0034 50.541 39.2311 47.7342 39.9354L47.7304 39.9364C43.3183 41.006 38.8024 41.5889 34.2633 41.6747L34.2538 41.6749L34.2538 41.6748C28.2585 41.6739 22.2658 41.3301 16.2902 40.9872C14.0371 40.858 11.7864 40.7289 9.53896 40.6183L9.53712 40.6182C8.87905 40.5834 8.20642 40.4653 7.43043 40.3289C7.04635 40.2615 6.63695 40.1895 6.19145 40.1211L5.26116 39.9781L5.90042 39.2873C7.18328 37.9009 8.75127 37.0316 10.1841 36.2372C10.3594 36.14 10.5327 36.0439 10.7032 35.9482C12.223 35.0945 13.5258 34.2653 14.3504 32.9111C14.0566 32.2258 13.6942 31.9968 13.3596 31.9216C12.933 31.8257 12.4088 31.9425 11.796 32.1556L11.7877 32.1585L11.7792 32.1611C8.03058 33.3181 4.67097 35.4809 2.06581 38.4141C1.49583 39.0898 1.10245 39.6275 0.862545 40.0869C0.625348 40.541 0.554813 40.8871 0.589269 41.1921C0.624076 41.5003 0.773733 41.8356 1.10797 42.2528C1.4449 42.6734 1.94324 43.1452 2.62895 43.7252L2.62921 43.7254C4.90694 45.6545 7.15593 47.6566 9.38114 49.6375C10.217 50.3815 11.0494 51.1226 11.8788 51.8557L11.8804 51.8571C11.947 51.9165 12.0085 51.9811 12.0569 52.0326C12.0661 52.0423 12.0749 52.0517 12.0832 52.0606C12.1235 52.1035 12.1552 52.1373 12.1874 52.1687C12.2087 52.1896 12.2249 52.2038 12.2365 52.2134C12.4499 52.2311 12.6668 52.2571 12.874 52.2821L12.9191 52.2875C13.164 52.3169 13.3961 52.3439 13.6203 52.3584C14.0352 52.3852 14.3672 52.3637 14.6274 52.2672C14.6354 52.2486 14.6449 52.2235 14.6552 52.1911C14.6966 52.06 14.7307 51.8708 14.7465 51.6513C14.7621 51.4344 14.7585 51.2071 14.7341 51.0045C14.7099 50.8029 14.6688 50.6575 14.6278 50.5732C13.6131 48.8608 12.5094 47.2026 11.3212 45.6056L10.7254 44.8047L11.7236 44.8071C12.0781 44.808 12.4118 44.8074 12.7303 44.8069C13.5503 44.8056 14.2697 44.8044 14.9849 44.8277L57.0964 24.5493ZM57.0964 24.5493L56.7284 24.656M57.0964 24.5493L56.7284 24.656M56.7284 24.656C55.927 24.8883 55.1353 25.1461 54.3637 25.3973C53.9257 25.54 53.4941 25.6805 53.071 25.8131C51.888 26.1836 50.7394 26.5026 49.579 26.6796L49.579 26.6796M56.7284 24.656L49.579 26.6796M49.579 26.6796L49.571 26.6809M49.579 26.6796L49.571 26.6809M49.571 26.6809C46.9661 27.1219 44.3116 27.1891 41.6877 26.8804C40.4478 26.7245 39.3154 26.0976 38.5252 25.1295C37.7345 24.161 37.347 22.9253 37.4431 21.6788L37.4442 21.6639M49.571 26.6809L37.4442 21.6639M37.4442 21.6639L37.4445 21.649M37.4442 21.6639L37.4445 21.649M37.4445 21.649C37.4687 20.2388 37.9397 19.0769 38.7588 18.2126C39.5809 17.3451 40.7857 16.7441 42.3307 16.5208L42.3318 16.5207M37.4445 21.649L42.3318 16.5207M42.3318 16.5207C46.4198 15.9203 50.2627 16.992 54.0172 18.7435C54.6244 19.0294 55.1995 19.3414 55.775 19.6536C56.0718 19.8146 56.3688 19.9757 56.6702 20.1332L56.8922 20.2493M42.3318 16.5207L56.8922 20.2493M56.8922 20.2493L57.1181 20.1409M56.8922 20.2493L57.1181 20.1409M57.1181 20.1409C58.6053 19.4275 59.8047 18.7294 60.7165 17.838C61.6413 16.9338 62.2492 15.8521 62.5943 14.4101C62.9357 12.9838 63.0194 11.2072 62.9135 8.90514C62.8117 6.69286 62.533 3.96555 62.1226 0.555626C62.9024 0.399386 63.4225 0.581126 63.8229 0.904202C64.3338 1.31637 64.7151 2.0087 65.0884 2.85137C66.2855 5.5591 66.5144 9.03964 65.9041 12.3979C65.2938 15.756 63.8564 18.9254 61.796 21.0251C61.5064 21.3175 61.2129 21.5982 60.8884 21.9085C60.7267 22.0631 60.5574 22.225 60.377 22.3994L60.1129 22.6548M57.1181 20.1409L60.1129 22.6548M60.1129 22.6548L60.2777 22.9832M60.1129 22.6548L60.2777 22.9832M60.2777 22.9832C60.4336 23.2938 60.5811 23.5756 60.7208 23.8426M60.2777 22.9832L60.7208 23.8426M60.7208 23.8426C60.9514 24.2832 61.1608 24.6833 61.3519 25.1057M60.7208 23.8426L61.3519 25.1057M61.3519 25.1057C63.481 29.9174 62.6135 34.8826 58.5855 38.1782L61.3519 25.1057ZM14.6056 52.3098C14.6056 52.3097 14.6063 52.3085 14.6079 52.3064C14.6064 52.3088 14.6056 52.3099 14.6056 52.3098ZM49.4311 23.5262C50.1571 23.4138 50.8806 23.3019 51.5978 23.201L52.2462 23.6194L52.2465 22.702L52.2467 21.6793L52.2468 21.3867L51.9917 21.2433C49.7184 19.9654 47.1555 19.2916 44.5476 19.2862C43.3266 19.2805 42.3071 19.4623 41.6015 19.8722C41.2414 20.0814 40.9484 20.3588 40.7664 20.7132C40.5831 21.0703 40.5313 21.4688 40.5948 21.8844C40.6757 22.4222 40.8562 22.864 41.1281 23.2144C41.4006 23.5656 41.7454 23.7999 42.1163 23.9514C42.8378 24.2459 43.6809 24.2348 44.3723 24.1828L44.3743 24.1826C46.0417 24.0505 47.7433 23.7873 49.4311 23.5262Z" fill="#6C5DD3" stroke="#1E222A"/>
</svg>
